# xmcd
#
# Track frame offsets:
# 150
# 19875
# 35277
# 60391
# 76525
# 95529
# 108931
# 125627
# 145510
# 162460
# 176185
# 190041
# 202000
#
# Disc length: 2850 seconds
#
# Revision: 0
# Processed by: cddbd v1.5.2PL0 Copyright (c) Steve Scherf et al.
# Submitted via: Axialis_AX_CDPlayer 2.6
#
DISCID=a60b200d
DTITLE=Spare Rib and The Bluegrass Sauce - Mountain Air Waves
DYEAR=1900
DGENRE=
TTITLE0=Thief In The White House
TTITLE1=Up And Down
TTITLE2=Sweet Child O' Mine
TTITLE3=Rocky Mountain Jackalope
TTITLE4=Opening My Heart
TTITLE5=June Apple
TTITLE6=The Soul Never Dies
TTITLE7=Stars In Your Eyes
TTITLE8=Naiad
TTITLE9=How Mountain Girls Can Love
TTITLE10=Lonesome Fiddle Blues
TTITLE11=Wagon Of Steel
TTITLE12=Shine The Light
EXTD=
EXTT0=
EXTT1=
EXTT2=
EXTT3=
EXTT4=
EXTT5=
EXTT6=
EXTT7=
EXTT8=
EXTT9=
EXTT10=
EXTT11=
EXTT12=
PLAYORDER=
